<svg width="208" height="76" viewBox="0 0 208 76" fill="none" xmlns="http://www.w3.org/2000/svg">
<path d="M0.647896 0.308C1.7919 0.22 2.9579 0.176 4.1459 0.176C5.34856 0.176 6.38256 0.469334 7.2479 1.056C8.1279 1.64267 8.5679 2.49333 8.5679 3.608C8.5679 4.444 8.33323 5.22133 7.8639 5.94C7.40923 6.65867 6.85923 7.20133 6.2139 7.568C7.25523 7.89067 8.1279 8.448 8.8319 9.24C9.5359 10.032 9.8879 10.9193 9.8879 11.902C9.8879 13.2807 9.4479 14.3293 8.5679 15.048C7.70256 15.7667 6.50723 16.126 4.9819 16.126C3.47123 16.126 2.02656 16.0673 0.647896 15.95V0.308ZM5.1139 15.18C6.18456 15.18 7.06456 14.8867 7.7539 14.3C8.44323 13.6987 8.7879 12.936 8.7879 12.012C8.7879 11.088 8.45056 10.2887 7.7759 9.614C7.1159 8.93933 6.20656 8.47733 5.0479 8.228C4.50523 8.11067 3.87456 8.052 3.1559 8.052C2.4519 8.052 1.9679 8.052 1.7039 8.052V15.07C2.34923 15.1433 3.4859 15.18 5.1139 15.18ZM7.5119 3.586C7.5119 2.77933 7.17456 2.156 6.4999 1.716C5.8399 1.276 5.0919 1.056 4.2559 1.056C3.43456 1.056 2.5839 1.08533 1.7039 1.144V7.15C1.89456 7.15 2.2539 7.15 2.7819 7.15C3.3099 7.15 4.08723 7.194 5.1139 7.282C5.7739 6.93 6.33856 6.424 6.8079 5.764C7.27723 5.104 7.5119 4.378 7.5119 3.586ZM15.7378 13.904C14.2858 12.3347 13.5598 10.406 13.5598 8.118C13.5598 5.83 14.2858 3.90867 15.7378 2.354C17.2045 0.784667 19.0525 1.19209e-07 21.2818 1.19209e-07C23.5112 1.19209e-07 25.3592 0.784667 26.8258 2.354C28.2925 3.90867 29.0258 5.83 29.0258 8.118C29.0258 10.406 28.2925 12.3347 26.8258 13.904C25.3592 15.4733 23.5112 16.258 21.2818 16.258C19.0525 16.258 17.2045 15.4733 15.7378 13.904ZM16.5298 3.036C15.3125 4.4 14.7038 6.094 14.7038 8.118C14.7038 10.142 15.3125 11.8433 16.5298 13.222C17.7618 14.6007 19.3458 15.29 21.2818 15.29C23.2325 15.29 24.8165 14.6007 26.0338 13.222C27.2658 11.8433 27.8818 10.142 27.8818 8.118C27.8818 6.094 27.2658 4.4 26.0338 3.036C24.8165 1.65733 23.2325 0.968001 21.2818 0.968001C19.3312 0.968001 17.7472 1.65733 16.5298 3.036ZM33.9057 15.994V0.264001H34.9617V15.026H42.1997V15.994H33.9057ZM45.8804 13.904C44.4284 12.3347 43.7024 10.406 43.7024 8.118C43.7024 5.83 44.4284 3.90867 45.8804 2.354C47.3471 0.784667 49.1951 1.19209e-07 51.4244 1.19209e-07C53.6537 1.19209e-07 55.5017 0.784667 56.9684 2.354C58.4351 3.90867 59.1684 5.83 59.1684 8.118C59.1684 10.406 58.4351 12.3347 56.9684 13.904C55.5017 15.4733 53.6537 16.258 51.4244 16.258C49.1951 16.258 47.3471 15.4733 45.8804 13.904ZM46.6724 3.036C45.4551 4.4 44.8464 6.094 44.8464 8.118C44.8464 10.142 45.4551 11.8433 46.6724 13.222C47.9044 14.6007 49.4884 15.29 51.4244 15.29C53.3751 15.29 54.9591 14.6007 56.1764 13.222C57.4084 11.8433 58.0244 10.142 58.0244 8.118C58.0244 6.094 57.4084 4.4 56.1764 3.036C54.9591 1.65733 53.3751 0.968001 51.4244 0.968001C49.4737 0.968001 47.8897 1.65733 46.6724 3.036ZM70.8463 1.65C69.7756 1.19533 68.7123 0.968001 67.6563 0.968001C65.515 0.968001 64.4443 1.76 64.4443 3.344C64.4443 4.03333 64.6863 4.67867 65.1703 5.28C65.6543 5.86667 66.241 6.39467 66.9303 6.864C67.6196 7.31867 68.309 7.788 68.9983 8.272C69.6876 8.756 70.2743 9.33533 70.7583 10.01C71.2423 10.6847 71.4843 11.418 71.4843 12.21C71.4843 13.5447 71.037 14.5567 70.1423 15.246C69.2476 15.9207 68.0083 16.258 66.4243 16.258C64.855 16.258 63.513 15.8547 62.3983 15.048L62.9263 14.256C63.9823 14.9453 65.141 15.29 66.4023 15.29C67.6636 15.29 68.6316 15.0407 69.3063 14.542C69.981 14.0287 70.3183 13.2953 70.3183 12.342C70.3183 11.682 70.0763 11.0587 69.5923 10.472C69.1083 9.87067 68.5216 9.33533 67.8323 8.866C67.143 8.382 66.4536 7.89067 65.7643 7.392C65.075 6.89333 64.4883 6.29933 64.0043 5.61C63.5203 4.92067 63.2783 4.18 63.2783 3.388C63.2783 2.34667 63.6596 1.52533 64.4223 0.924C65.1996 0.308 66.241 1.19209e-07 67.5463 1.19209e-07C68.8663 1.19209e-07 70.091 0.264 71.2203 0.792L70.8463 1.65ZM89.0453 15.224C91.1133 15.224 92.7706 14.6667 94.0173 13.552C95.2786 12.4227 95.9093 10.7287 95.9093 8.47C95.9093 6.21133 95.1979 4.41467 93.7753 3.08C92.3673 1.74533 90.6219 1.078 88.5393 1.078C87.2046 1.078 86.0459 1.11467 85.0633 1.188V15.048C86.0166 15.1653 87.3439 15.224 89.0453 15.224ZM88.5393 0.11C90.9593 0.11 92.9833 0.865334 94.6113 2.376C96.2393 3.872 97.0533 5.91067 97.0533 8.492C97.0533 9.79733 96.8406 10.956 96.4153 11.968C96.0046 12.9653 95.4326 13.7647 94.6993 14.366C93.1886 15.5833 91.3039 16.192 89.0453 16.192C87.5639 16.192 85.8846 16.1113 84.0073 15.95V0.264001C85.5033 0.161334 87.0139 0.11 88.5393 0.11ZM103.201 13.904C101.749 12.3347 101.023 10.406 101.023 8.118C101.023 5.83 101.749 3.90867 103.201 2.354C104.667 0.784667 106.515 1.19209e-07 108.745 1.19209e-07C110.974 1.19209e-07 112.822 0.784667 114.289 2.354C115.755 3.90867 116.489 5.83 116.489 8.118C116.489 10.406 115.755 12.3347 114.289 13.904C112.822 15.4733 110.974 16.258 108.745 16.258C106.515 16.258 104.667 15.4733 103.201 13.904ZM103.993 3.036C102.775 4.4 102.167 6.094 102.167 8.118C102.167 10.142 102.775 11.8433 103.993 13.222C105.225 14.6007 106.809 15.29 108.745 15.29C110.695 15.29 112.279 14.6007 113.497 13.222C114.729 11.8433 115.345 10.142 115.345 8.118C115.345 6.094 114.729 4.4 113.497 3.036C112.279 1.65733 110.695 0.968001 108.745 0.968001C106.794 0.968001 105.21 1.65733 103.993 3.036ZM-0.000103414 74.994V73.842L4.0799 72.882V40.53L-0.000103414 39.594V38.442H14.7119C17.1919 38.442 19.3839 38.842 21.2879 39.642C23.2079 40.426 24.7039 41.594 25.7759 43.146C26.8639 44.682 27.4079 46.578 27.4079 48.834C27.4079 51.186 26.7199 53.122 25.3439 54.642C23.9839 56.162 22.0639 57.226 19.5839 57.834L29.5919 72.882L34.8479 73.842V74.994H24.1919L13.6799 58.458H9.4799V72.882L14.8799 73.842V74.994H-0.000103414ZM9.4799 56.514H12.2639C14.2159 56.514 15.7519 56.282 16.8719 55.818C18.0079 55.354 18.9279 54.73 19.6319 53.946C20.3359 53.162 20.8319 52.29 21.1199 51.33C21.4239 50.354 21.5759 49.362 21.5759 48.354C21.5759 46.45 21.1919 44.882 20.4239 43.65C19.6559 42.418 18.5919 41.53 17.2319 40.986C16.6879 40.762 16.0879 40.61 15.4319 40.53C14.7759 40.434 13.9519 40.386 12.9599 40.386H9.4799V56.514ZM52.2816 75.498C49.7536 75.498 47.4256 75.026 45.2976 74.082C43.1856 73.122 41.3456 71.794 39.7776 70.098C38.2256 68.386 37.0176 66.394 36.1536 64.122C35.3056 61.834 34.8816 59.362 34.8816 56.706C34.8816 54.034 35.3056 51.562 36.1536 49.29C37.0176 47.018 38.2256 45.034 39.7776 43.338C41.3456 41.626 43.1856 40.298 45.2976 39.354C47.4256 38.41 49.7536 37.938 52.2816 37.938C54.8096 37.938 57.1376 38.41 59.2656 39.354C61.3936 40.298 63.2336 41.626 64.7856 43.338C66.3536 45.034 67.5696 47.018 68.4336 49.29C69.2976 51.562 69.7296 54.034 69.7296 56.706C69.7296 59.362 69.2976 61.834 68.4336 64.122C67.5696 66.394 66.3536 68.386 64.7856 70.098C63.2336 71.794 61.3936 73.122 59.2656 74.082C57.1376 75.026 54.8096 75.498 52.2816 75.498ZM52.2816 73.242C53.7056 73.242 54.9936 72.986 56.1456 72.474C57.3136 71.962 58.3376 71.226 59.2176 70.266C60.1136 69.29 60.8656 68.122 61.4736 66.762C62.0816 65.402 62.5376 63.866 62.8416 62.154C63.1456 60.442 63.2976 58.586 63.2976 56.586C63.2976 54.618 63.1456 52.794 62.8416 51.114C62.5376 49.418 62.0896 47.898 61.4976 46.554C60.9056 45.21 60.1616 44.066 59.2656 43.122C58.3856 42.162 57.3616 41.434 56.1936 40.938C55.0416 40.426 53.7536 40.17 52.3296 40.17C50.9056 40.17 49.6096 40.426 48.4416 40.938C47.2736 41.434 46.2416 42.162 45.3456 43.122C44.4656 44.082 43.7216 45.242 43.1136 46.602C42.5216 47.946 42.0736 49.466 41.7696 51.162C41.4656 52.858 41.3136 54.698 41.3136 56.682C41.3136 58.666 41.4656 60.506 41.7696 62.202C42.0736 63.898 42.5216 65.426 43.1136 66.786C43.7216 68.146 44.4656 69.306 45.3456 70.266C46.2256 71.226 47.2416 71.962 48.3936 72.474C49.5616 72.986 50.8576 73.242 52.2816 73.242ZM73.9686 74.994V73.842L78.0486 72.882V40.53L73.9686 39.594V38.442H88.3206C90.5286 38.442 92.3606 38.602 93.8166 38.922C95.2886 39.226 96.5126 39.706 97.4886 40.362C98.6246 41.146 99.5126 42.146 100.153 43.362C100.793 44.578 101.113 45.89 101.113 47.298C101.113 49.346 100.425 51.074 99.0486 52.482C97.6886 53.89 95.7286 54.85 93.1686 55.362V55.53C95.0886 55.738 96.7686 56.29 98.2086 57.186C99.6486 58.066 100.761 59.202 101.545 60.594C102.345 61.986 102.745 63.554 102.745 65.298C102.745 66.754 102.457 68.114 101.881 69.378C101.305 70.642 100.513 71.682 99.5046 72.498C98.4006 73.394 97.0486 74.034 95.4486 74.418C93.8486 74.802 91.7366 74.994 89.1126 74.994H73.9686ZM87.5766 73.098C90.7126 73.098 93.0246 72.434 94.5126 71.106C96.0166 69.762 96.7686 67.69 96.7686 64.89C96.7686 62.026 95.9926 59.922 94.4406 58.578C92.8886 57.218 90.4646 56.538 87.1686 56.538H83.4486V70.266C83.4486 71.37 83.7366 72.122 84.3126 72.522C84.9046 72.906 85.9926 73.098 87.5766 73.098ZM83.4486 54.57H86.0886C86.9526 54.57 87.6726 54.562 88.2486 54.546C88.8406 54.514 89.3846 54.474 89.8806 54.426C91.6406 54.234 92.9926 53.522 93.9366 52.29C94.8806 51.042 95.3526 49.354 95.3526 47.226C95.3526 46.09 95.2086 45.138 94.9206 44.37C94.6326 43.586 94.1766 42.89 93.5526 42.282C92.8646 41.578 92.0326 41.09 91.0566 40.818C90.0966 40.53 88.7766 40.386 87.0966 40.386H83.4486V54.57ZM107.297 74.994V73.842L111.377 72.882V40.506L107.297 39.594V38.442H134.081L134.921 48.882H133.649C133.265 47.538 132.793 46.13 132.233 44.658C131.689 43.17 131.017 41.754 130.217 40.41H116.777V73.002H129.977C130.921 71.466 131.689 69.946 132.281 68.442C132.889 66.938 133.465 65.418 134.009 63.882H135.689L133.889 74.994H107.297ZM126.737 62.37C126.577 61.41 126.353 60.458 126.065 59.514C125.777 58.57 125.401 57.634 124.937 56.706H116.105V54.714H124.937C125.401 53.77 125.769 52.826 126.041 51.882C126.329 50.922 126.561 49.978 126.737 49.05H127.985V62.37H126.737ZM140.391 74.994V73.842L144.471 72.882V40.53L140.391 39.594V38.442H155.103C157.583 38.442 159.775 38.842 161.679 39.642C163.599 40.426 165.095 41.594 166.167 43.146C167.255 44.682 167.799 46.578 167.799 48.834C167.799 51.186 167.111 53.122 165.735 54.642C164.375 56.162 162.455 57.226 159.975 57.834L169.983 72.882L175.239 73.842V74.994H164.583L154.071 58.458H149.871V72.882L155.271 73.842V74.994H140.391ZM149.871 56.514H152.655C154.607 56.514 156.143 56.282 157.263 55.818C158.399 55.354 159.319 54.73 160.023 53.946C160.727 53.162 161.223 52.29 161.511 51.33C161.815 50.354 161.967 49.362 161.967 48.354C161.967 46.45 161.583 44.882 160.815 43.65C160.047 42.418 158.983 41.53 157.623 40.986C157.079 40.762 156.479 40.61 155.823 40.53C155.167 40.434 154.343 40.386 153.351 40.386H149.871V56.514ZM182.409 74.994V73.842L187.713 72.882V40.41H178.401C177.377 41.77 176.505 43.194 175.785 44.682C175.081 46.17 174.497 47.586 174.033 48.93H172.785L174.537 38.442H206.121L207.873 48.93H206.649C206.185 47.586 205.593 46.17 204.873 44.682C204.169 43.194 203.305 41.77 202.281 40.41H193.113V72.882L198.321 73.842V74.994H182.409Z" fill="white"/>
</svg>
